# xmcd
#
# Track frame offsets:
#	182
#	13155
#	25890
#	38847
#	51577
#	61445
#	73205
#	85072
#	95422
#	106742
#	117760
#	130077
#
# Disc length: 1929 seconds
#
# Revision: 1
# Processed by: cddbd v1.5.2PL0 Copyright (c) Steve Scherf et al.
# Submitted via: audiograbber 1.83.01
#
DISCID=a007870c
DTITLE=Will Tura - Zingt Elvis Presley
DYEAR=1984
DGENRE=Country
TTITLE0=In the getto
TTITLE1=Verkeerd verbonden
TTITLE2=Daar gaat m'n enige liefde.
TTITLE3=Kus me gauw.
TTITLE4=Kom terug.
TTITLE5=Medley. Blue suede shoes.
TTITLE6=Duivelskind.
TTITLE7=Heimwee hotel.
TTITLE8=Teddy beer.
TTITLE9=Mijn talisman.
TTITLE10=Ben je eenzaam vannacht.
TTITLE11=Goodbye Elvis.
EXTD=
EXTT0=
EXTT1=
EXTT2=
EXTT3=
EXTT4=
EXTT5=
EXTT6=
EXTT7=
EXTT8=
EXTT9=
EXTT10=
EXTT11=
PLAYORDER=
